<?xml version="1.0" encoding="utf-8"?>
<!-- Generator: Adobe Illustrator 19.2.0, SVG Export Plug-In . SVG Version: 6.00 Build 0)  -->
<svg version="1.1" id="图层_1" xmlns="http://www.w3.org/2000/svg" xmlns:xlink="http://www.w3.org/1999/xlink" x="0px" y="0px"
	 viewBox="0 0 1105 1000" style="enable-background:new 0 0 1105 1000;" xml:space="preserve">
<style type="text/css">
	.st0{fill:#FFFFFF;}
	.st1{opacity:0.6;fill:#FFFFFF;enable-background:new    ;}
</style>
<g>
	<g id="MI_1_">
		<g id="形状_1_拷贝_9_1_">
			<g>
				<path class="st0" d="M98.6,780.1H75.7c-2.5,0-4.6,1.9-4.6,4.4V948c0,2.6,2.1,4.6,4.6,4.6h22.9c2.5,0,4.6-2.1,4.6-4.6V784.6
					C103.2,782,101.1,780.1,98.6,780.1z M190.9,820.1c-15.3,0-24.1,2.6-37.5,11.1v-4.9c0-2.6-2.1-4.6-4.6-4.6h-20.1
					c-2.5,0-4.6,2.1-4.6,4.6v121.5c0,2.6,2.1,4.9,4.6,4.9H150c2.5,0,4.6-2.3,4.6-4.9v-93.3c9.7-5.1,18.3-8.4,26.1-8.4
					c17.8,0,19.7,5.8,19.7,26v75.7c0,2.6,2.1,4.9,4.6,4.9h21.3c2.5,0,4.6-2.3,4.6-4.9v-75.7C230.9,842.6,224.2,820.1,190.9,820.1z
					 M314.8,883l-30.3-18.5c-5.8-3.5-9.3-5.8-9.3-9.5c0-7.2,4.9-9.8,16-9.8c13.2,0,31.7,1.9,38.2,2.8h0.9c2.3,0,3.7-1.6,3.7-4.4
					v-13.5c0-2.8-1.4-4.6-4.2-5.3c-11.8-2.6-22.4-4.6-41.2-4.6c-29.4,0-43.9,11.6-43.9,34.8c0,13.5,8.1,25.1,19.4,32.1l31.7,19.5
					c7.4,4.6,10.2,7.4,10.2,11.8c0,6.3-2.1,11.1-16.4,11.1c-6.9,0-27.8-1.2-38.9-2.6h-0.9c-2.3,0-3.9,1.9-3.9,3.7v13.9
					c0,2.8,1.6,4.6,4.4,5.3c13,3.5,32.4,4.6,41.4,4.6c30.3,0,45.3-16,45.3-36.2C337,906.5,334.3,894.9,314.8,883z M377.5,821.7
					h-21.3c-2.5,0-4.6,2.1-4.6,4.6v121.5c0,2.6,2.1,4.9,4.6,4.9h21.3c2.5,0,4.6-2.3,4.6-4.9V826.4
					C382.1,823.8,380.1,821.7,377.5,821.7z M378.2,774.6h-22.4c-2.5,0-4.9,2.1-4.9,4.6v20.4c0,2.6,2.3,4.6,4.9,4.6h22.4
					c2.5,0,4.6-2.1,4.6-4.6v-20.4C382.8,776.7,380.7,774.6,378.2,774.6z M508.7,821.7h-54.1c-40,0-55.1,19.5-55.1,42.7v1.6
					c0,11.6,2.5,20,9.5,27.2c-6.2,4.4-9.3,11.6-9.3,18.8v0.2c0,8.4,3.9,16.5,10.4,21.4c-7.4,6.7-11.8,16-11.8,25.6v2.1
					c0,24.4,19.9,38.6,57.4,38.6c39.3,0,56.7-12.8,56.7-36.5v-1.6c0-24.9-20.4-29.7-51.8-37.2l-27.3-6.5c-5.3-1.2-7.9-3-7.9-7.7
					c0-2.1,1.2-4.2,3.9-6c4.6,1.9,13,3.9,25.2,3.9c34.9,0,54.8-13.2,54.8-42.3v-1.5c0-8.1-2.1-13.2-5.8-18.6l7.6-3
					c2.8-1.2,3.7-1.6,3.7-5.1V828C514.9,824.5,512.1,821.7,508.7,821.7z M428.2,959.2c0-8.4,2.3-11.4,5.8-16.3l20.6,4.9
					c24.3,5.8,27.3,8.8,27.3,13.9v1.6c0,8.4-3.9,13.2-26.1,13.2c-21.7,0-27.5-5.8-27.5-15.3L428.2,959.2L428.2,959.2z M479.3,866.8
					c0,11.6-5.6,18.4-24.7,18.4c-21.5,0-25-9.8-25-18.4v-1.9c0-10.9,5.3-19.7,25-19.7c19.9,0,24.7,8.6,24.7,19.7V866.8z
					 M590.3,820.1c-16.4,0-26.1,3.3-34.9,8.6v-48.1c0-2.6-2.1-4.6-4.6-4.6h-21.3c-2.5,0-4.6,2.1-4.6,4.6v167.2
					c0,2.6,2.1,4.9,4.6,4.9h21.2c2.5,0,4.6-2.3,4.6-4.9V854c9.7-5.1,19-7.9,26.8-7.9c15.5,0,19,5.1,19,25.3v76.4
					c0,2.6,2.1,4.9,4.6,4.9H627c2.5,0,4.6-2.3,4.6-4.9v-76.4C631.7,842.9,622.2,820.1,590.3,820.1z M713.6,930.7h-12.3
					c-8.3,0-9-1.4-9-13v-72.9h20.8c2.5,0,4.6-2.1,4.6-4.6v-13.7c0-2.6-2.1-4.6-4.6-4.6h-20.8V798c0-2.3-1.6-3.5-3.7-3.5h-0.9
					l-21.5,3.7c-2.5,0.5-4.6,2.1-4.6,4.6v19h-21.7c-2.5,0-4.6,2.1-4.6,4.6v10.5c0,2.6,2.1,4.2,4.6,4.6l21.7,3.3v72.9
					c0,31.1,10.6,36.9,36.8,36.9c5.1,0,10.2-0.7,15.7-1.6c3-0.5,4.4-1.9,4.4-4.2v-14.6C718.4,931.8,716.6,930.7,713.6,930.7z"/>
			</g>
		</g>
		<g id="形状_1_拷贝_5_1_">
			<g>
				<path class="st1" d="M100.4,399c-17,0-29.3,9.8-29.3,33.1v14.3c0,23.4,12.3,33.1,29.3,33.1s29.3-9.8,29.3-33.1v-14.3
					C129.7,408.7,117.4,399,100.4,399z M115.3,446.4c0,14-4.8,20.3-14.9,20.3s-14.9-6.3-14.9-20.3v-14.3c0-14,4.8-20.3,14.9-20.3
					s14.9,6.3,14.9,20.3V446.4z M193.8,399H185c-1.1,0-2,0.8-2,2l-0.1,57.6c0,0.6-0.3,1-0.5,1c-0.3,0-0.6-0.3-0.8-0.8l-23.9-56.4
					c-1.2-2.8-2.4-3.4-4.5-3.4h-11.1c-2.3,0-4.1,1.9-4.1,4.2l-0.1,74.3c0,1.2,0.9,2.1,2.1,2.1h8.7c1.1,0,2-1,2-2.1l0.1-55.2
					c0-0.6,0.2-0.8,0.5-0.8s0.6,0.2,0.9,0.8l22.7,53.5c1.6,3.8,3.8,3.8,6.3,3.8h10.4c2.3,0,4.1-1.9,4.1-4.2l0.1-74.4
					C195.8,399.8,195,399,193.8,399z M249.4,400.5c-3.3-0.5-7.3-1.5-19.5-1.5c-13.4,0-23.8,3.7-23.8,21.8v37
					c0,18,10.4,21.8,23.8,21.8c12.2,0,16.3-1,19.5-1.5c1.5-0.2,2.1-0.7,2.1-2.2v-6.8c0-1.2-0.9-2.1-2.1-2.1h-21
					c-6,0-8.1-2.1-8.1-9.1v-13.7h27.9c1.1,0,2.1-1,2.1-2.1v-7.6c0-1.2-0.9-2.1-2.1-2.1h-27.9v-11.5c0-7,2.2-9.1,8.1-9.1h21
					c1.1,0,2.1-1,2.1-2.1v-6.8C251.4,401.2,250.9,400.7,249.4,400.5z M300,409.8c-2.5-9.9-9.9-10.8-14.3-10.8s-11.8,1-14.3,10.8
					l-16.9,67.5l-0.1,0.5c0,1.1,0.8,1.8,1.9,1.8h10.9c0.9,0,1.7-0.8,2-1.8l4.7-20.2h23.7l4.7,20.2c0.2,1,1,1.8,2,1.8h10.9
					c1,0,1.9-0.7,1.9-1.8l-0.1-0.5L300,409.8z M276.6,445.6l7.4-32.5c0.3-1.3,0.6-1.7,1.6-1.7s1.3,0.4,1.6,1.7l7.4,32.5
					C294.6,445.6,276.6,445.6,276.6,445.6z M344.9,398.9c-7.5,0-14.8,0.5-20.2,1.4c-2.1,0.3-3.3,1.1-3.3,3.2l0.1,74.1
					c0,1.2,0.9,2.1,2.1,2.1h10.3c1.1,0,2-1,2-2.1l-0.1-28.8c2.4,0.1,6.5,0.4,9.2,0.4c15.8,0,29.6-6,29.6-24.8v-1
					C374.5,404.6,360.7,398.9,344.9,398.9z M360.3,424.4c0,8.5-4.3,12.7-15.4,12.7c-1.7,0-7.5-0.2-9.2-0.3v-25.3
					c1.9-0.2,7-0.4,9.2-0.4c10.3,0,15.4,3.4,15.4,12.3V424.4z M442.7,398.9h-8.4c-1.6,0-3.1,1.1-3.8,2.5L415,433.9
					c-0.5,1-0.7,1.5-1.1,1.5s-0.6-0.5-1.1-1.5l-15.5-32.5c-0.7-1.5-2.2-2.5-3.8-2.5h-8.4c-2.3,0-4.1,1.9-4.1,4.2v75
					c0,1.1,0.8,1.6,1.7,1.6h10.4c0.9,0,1.6-1.1,1.6-2.1v-51.3c0-0.7,0.1-1.1,0.3-1.1l0.5,0.6l10,20.3c0.6,1.2,2,1.8,3.3,1.8h10.4
					c1.3,0,2.7-0.6,3.3-1.8l9.9-20.3l0.5-0.6c0.2,0,0.3,0.3,0.3,1.1v51.3c0,1.1,0.7,2.1,1.6,2.1h10.4c0.9,0,1.7-0.5,1.7-1.6v-75
					C446.8,400.8,444.9,398.9,442.7,398.9z"/>
			</g>
		</g>
	</g>
	<path id="XMLID_27_" class="st0" d="M1002.6,164C984.5,96.3,944.1,49.2,881.5,22.6C818.8-3.9,750-7.1,675,13.1
		c-85.8,23.1-148.4,59.8-187.8,110.3c-39.4,50.4-49.9,110.5-31.3,180.1c16,59.9,44.8,104.8,86.2,134.7
		c-8.8-17.4-14.1-39.8-14.1-68.3V310c0-102.2,66.4-124.6,115.3-124.6c31.4,0,58.2,4.9,64.3,6.5c5.3,1.6,9,3.7,9,9.4v27.3
		c0,4.9-2,8.6-8.1,8.6c0,0-0.4,0-0.8,0c-14.3-1.2-41.9-3.3-63.5-3.3c-34.2,0-59,18.3-59,76.2V370c0,56.6,24.8,76.2,59,76.2
		c21.6,0,49.3-2,63.5-3.3c0.4,0,0.8,0,0.8,0c6.1,0,8.1,3.7,8.1,8.6v27.3c0,0.7-0.1,1.2-0.2,1.8c12.7-1,25.6-2.7,38.9-5.1V278.4
		c0-4.6,3.7-8.3,8.3-8.3h38.3c4.6,0,8.3,3.7,8.3,8.3v184C887.5,439.1,943.4,403,977.8,354C1014.2,301.9,1022.5,238.6,1002.6,164z
		 M811.4,230.4c0,4.6-3.7,8.3-8.3,8.3h-40.4c-4.6,0-8.7-3.7-8.7-8.3v-36.6c0-4.6,4.2-8.3,8.7-8.3h40.4c4.6,0,8.3,3.7,8.3,8.3V230.4z
		"/>
	<g id="XMLID_1_">
		<g>
			<path id="XMLID_112_" class="st0" d="M174.2,708c-3.5,0.9-19,3.7-37,3.7c-28.1,0-66.2-13.8-66.2-71.6v-34.4
				c0-58.8,38.1-71.7,66.2-71.7c18,0,33.5,2.8,37,3.7c3,0.9,5.1,2.1,5.1,5.4v15.7c0,2.8-1.2,4.9-4.7,4.9c0,0-0.2,0-0.5,0
				c-8.2-0.7-24.1-1.9-36.5-1.9c-19.7,0-33.9,10.5-33.9,43.8V640c0,32.5,14.3,43.8,33.9,43.8c12.4,0,28.3-1.2,36.5-1.9
				c0.2,0,0.5,0,0.5,0c3.5,0,4.7,2.1,4.7,4.9v15.7C179.4,705.9,177.3,707,174.2,708z"/>
			<path id="XMLID_110_" class="st0" d="M220.5,709.8h-21.8c-2.6,0-4.7-2.3-4.7-4.9V536.4c0-2.6,2.1-4.7,4.7-4.7h21.8
				c2.6,0,4.4,2.1,4.4,4.7v168.5C225,707.5,223.1,709.8,220.5,709.8z"/>
			<path id="XMLID_107_" class="st0" d="M296.4,711.7c-36.8,0-55.9-24.8-55.9-58.3v-19c0-33.5,19.2-58.3,55.9-58.3
				s55.9,24.8,55.9,58.3v19C352.3,686.9,333.1,711.7,296.4,711.7z M321.4,634.5c0-19.2-8.7-31.6-25-31.6s-25,12.4-25,31.6v19
				c0,19.2,8.7,31.6,25,31.6s25-12.4,25-31.6V634.5z"/>
			<path id="XMLID_105_" class="st0" d="M470.1,709.8h-21.5c-2.6,0-4.7-2.1-4.7-4.7v-5.4c-12.2,8-21.8,11.7-36.8,11.7
				c-11.7,0-22-3-28.8-9.8c-8.7-8.7-11.7-23.2-11.7-42.6v-76.3c0-2.6,2.1-4.9,4.7-4.9h21.5c2.6,0,4.7,2.3,4.7,4.9V659
				c0,11.7,0.9,18.5,5.4,22.5c3.3,2.8,7.3,4.2,14.5,4.2c8.7,0,19.9-5.9,26.5-9.4v-93.6c0-2.6,2.1-4.9,4.7-4.9h21.5
				c2.6,0,4.7,2.3,4.7,4.9v122.4C474.7,707.7,472.6,709.8,470.1,709.8z"/>
			<path id="XMLID_102_" class="st0" d="M591.3,705.6c-14.5,3.7-32.1,6.1-47.1,6.1c-37.7,0-55.9-22.2-55.9-58.8v-18
				c0-36.5,18.3-58.7,55.9-58.7c5.6,0,13.8,0.5,22.5,1.6v-41.4c0-2.6,2.1-4.7,4.7-4.7h21.5c2.6,0,4.7,2.1,4.7,4.7v162.9
				C597.6,702.8,596.7,704.2,591.3,705.6z M566.7,603.1c-6.6-0.9-16.9-1.6-22.5-1.6c-20.1,0-25,14.3-25,33.5v18
				c0,19.2,4.9,33.5,25,33.5c8.4,0,18-0.7,22.5-1.6V603.1z"/>
		</g>
	</g>
</g>
</svg>
